<mxfile host="65bd71144e" modified="2023-02-27T16:42:20.410Z" agent="5.0 (Macintosh; Intel Mac OS X 12_4_0) AppleWebKit/537.36 (KHTML, like Gecko) Code/1.74.0 Chrome/102.0.5005.167 Electron/19.1.8 Safari/537.36" version="20.8.23" etag="sY4s1NCOg1z7F3AyNP74" type="embed">
    <diagram id="nl_0TGYSznV-Sr15TuC9" name="Page-1">
        <mxGraphModel dx="1001" dy="769" grid="1" gridSize="10" guides="1" tooltips="1" connect="1" arrows="1" fold="1" page="1" pageScale="1" pageWidth="827" pageHeight="1169" math="0" shadow="0">
            <root>
                <mxCell id="0"/>
                <mxCell id="1" parent="0"/>
            </root>
        </mxGraphModel>
    </diagram>
</mxfile>